<svg version="1.1" xmlns="http://www.w3.org/2000/svg" viewBox="0 0 651.90775217035 166.43134570607037" width="651.90775217035" height="166.43134570607037">
  <!-- svg-source:excalidraw -->
  
  <defs>
    <style class="style-fonts">
      @font-face {
        font-family: "Virgil";
        src: url("https://excalidraw.com/Virgil.woff2");
      }
      @font-face {
        font-family: "Cascadia";
        src: url("https://excalidraw.com/Cascadia.woff2");
      }
      @font-face {
        font-family: "Assistant";
        src: url("https://excalidraw.com/Assistant-Regular.woff2");
      }
    </style>
    
  </defs>
  <rect x="0" y="0" width="651.90775217035" height="166.43134570607037" fill="#ffffff"></rect><g stroke-linecap="round" transform="translate(10 100.03897798253257) rotate(0 73.97839011391807 28.196183689964784)"><path d="M14.1 0 C51.07 0, 88.04 0, 133.86 0 M14.1 0 C57.33 0, 100.57 0, 133.86 0 M133.86 0 C143.26 0, 147.96 4.7, 147.96 14.1 M133.86 0 C143.26 0, 147.96 4.7, 147.96 14.1 M147.96 14.1 C147.96 22.37, 147.96 30.65, 147.96 42.29 M147.96 14.1 C147.96 24.84, 147.96 35.58, 147.96 42.29 M147.96 42.29 C147.96 51.69, 143.26 56.39, 133.86 56.39 M147.96 42.29 C147.96 51.69, 143.26 56.39, 133.86 56.39 M133.86 56.39 C88.89 56.39, 43.92 56.39, 14.1 56.39 M133.86 56.39 C101.17 56.39, 68.48 56.39, 14.1 56.39 M14.1 56.39 C4.7 56.39, 0 51.69, 0 42.29 M14.1 56.39 C4.7 56.39, 0 51.69, 0 42.29 M0 42.29 C0 31.39, 0 20.48, 0 14.1 M0 42.29 C0 31.98, 0 21.66, 0 14.1 M0 14.1 C0 4.7, 4.7 0, 14.1 0 M0 14.1 C0 4.7, 4.7 0, 14.1 0" stroke="#1e1e1e" stroke-width="2" fill="none"></path></g><g stroke-linecap="round" transform="translate(251.97548527114714 100.03897770607034) rotate(0 73.97839037437882 28.196184000000017)"><path d="M14.1 0 C61.56 0, 109.02 0, 133.86 0 M14.1 0 C58.66 0, 103.22 0, 133.86 0 M133.86 0 C143.26 0, 147.96 4.7, 147.96 14.1 M133.86 0 C143.26 0, 147.96 4.7, 147.96 14.1 M147.96 14.1 C147.96 22.92, 147.96 31.74, 147.96 42.29 M147.96 14.1 C147.96 22.06, 147.96 30.03, 147.96 42.29 M147.96 42.29 C147.96 51.69, 143.26 56.39, 133.86 56.39 M147.96 42.29 C147.96 51.69, 143.26 56.39, 133.86 56.39 M133.86 56.39 C97.44 56.39, 61.03 56.39, 14.1 56.39 M133.86 56.39 C103.91 56.39, 73.95 56.39, 14.1 56.39 M14.1 56.39 C4.7 56.39, 0 51.69, 0 42.29 M14.1 56.39 C4.7 56.39, 0 51.69, 0 42.29 M0 42.29 C0 31.67, 0 21.04, 0 14.1 M0 42.29 C0 35.84, 0 29.39, 0 14.1 M0 14.1 C0 4.7, 4.7 0, 14.1 0 M0 14.1 C0 4.7, 4.7 0, 14.1 0" stroke="#1e1e1e" stroke-width="2" fill="none"></path></g><g stroke-linecap="round" transform="translate(493.9509714215924 100.03897770607028) rotate(0 73.97839037437882 28.196183999999988)"><path d="M14.1 0 C53.59 0, 93.08 0, 133.86 0 M14.1 0 C42.31 0, 70.52 0, 133.86 0 M133.86 0 C143.26 0, 147.96 4.7, 147.96 14.1 M133.86 0 C143.26 0, 147.96 4.7, 147.96 14.1 M147.96 14.1 C147.96 21.69, 147.96 29.29, 147.96 42.29 M147.96 14.1 C147.96 24.66, 147.96 35.22, 147.96 42.29 M147.96 42.29 C147.96 51.69, 143.26 56.39, 133.86 56.39 M147.96 42.29 C147.96 51.69, 143.26 56.39, 133.86 56.39 M133.86 56.39 C95.89 56.39, 57.93 56.39, 14.1 56.39 M133.86 56.39 C103.56 56.39, 73.26 56.39, 14.1 56.39 M14.1 56.39 C4.7 56.39, 0 51.69, 0 42.29 M14.1 56.39 C4.7 56.39, 0 51.69, 0 42.29 M0 42.29 C0 33.18, 0 24.06, 0 14.1 M0 42.29 C0 34.37, 0 26.45, 0 14.1 M0 14.1 C0 4.7, 4.7 0, 14.1 0 M0 14.1 C0 4.7, 4.7 0, 14.1 0" stroke="#1e1e1e" stroke-width="2" fill="none"></path></g><g transform="translate(33.691143409816505 116.79953163846324) rotate(0 50.28724670410156 11.43563003403392)"><text x="50.28724670410156" y="18.297396492974432" font-family="Helvetica, Segoe UI Emoji" font-size="19.888052233102453px" fill="#1e1e1e" text-anchor="middle" style="white-space: pre;" direction="ltr" dominant-baseline="alphabetic">Conceptual</text></g><g transform="translate(285.08246146095564 116.79953167203644) rotate(0 40.87141418457031 11.43563003403392)"><text x="40.87141418457031" y="18.297396492974432" font-family="Helvetica, Segoe UI Emoji" font-size="19.888052233102453px" fill="#1e1e1e" text-anchor="middle" style="white-space: pre;" direction="ltr" dominant-baseline="alphabetic">Empirical</text></g><g transform="translate(526.4900765176508 116.79953167203632) rotate(0 41.43928527832031 11.43563003403392)"><text x="41.43928527832031" y="18.297396492974432" font-family="Helvetica, Segoe UI Emoji" font-size="19.888052233102453px" fill="#1e1e1e" text-anchor="middle" style="white-space: pre;" direction="ltr" dominant-baseline="alphabetic">Technical</text></g><g stroke-linecap="round"><g transform="translate(410.48405841677913 128.23516158497296) rotate(0 36.4575608834765 0)"><path d="M0 0 C12.15 0, 60.76 0, 72.92 0 M0 0 C12.15 0, 60.76 0, 72.92 0" stroke="#1e1e1e" stroke-width="2" fill="none"></path></g><g transform="translate(410.48405841677913 128.23516158497296) rotate(0 36.4575608834765 0)"><path d="M72.92 0 L59.32 6.34 L59.32 -6.34 L72.92 0" stroke="none" stroke-width="0" fill="#1e1e1e" fill-rule="evenodd"></path><path d="M72.92 0 C68.51 2.06, 64.1 4.11, 59.32 6.34 M72.92 0 C68.28 2.16, 63.64 4.33, 59.32 6.34 M59.32 6.34 C59.32 3.73, 59.32 1.13, 59.32 -6.34 M59.32 6.34 C59.32 2.92, 59.32 -0.49, 59.32 -6.34 M59.32 -6.34 C62.49 -4.86, 65.67 -3.38, 72.92 0 M59.32 -6.34 C62.88 -4.68, 66.43 -3.02, 72.92 0 M72.92 0 C72.92 0, 72.92 0, 72.92 0 M72.92 0 C72.92 0, 72.92 0, 72.92 0" stroke="#1e1e1e" stroke-width="2" fill="none"></path></g></g><mask></mask><g stroke-linecap="round"><g transform="translate(168.50857208710522 128.2351617281622) rotate(0 36.4575608834765 0)"><path d="M0 0 C12.15 0, 60.76 0, 72.92 0 M0 0 C12.15 0, 60.76 0, 72.92 0" stroke="#1e1e1e" stroke-width="2" fill="none"></path></g><g transform="translate(168.50857208710522 128.2351617281622) rotate(0 36.4575608834765 0)"><path d="M72.92 0 L59.32 6.34 L59.32 -6.34 L72.92 0" stroke="none" stroke-width="0" fill="#1e1e1e" fill-rule="evenodd"></path><path d="M72.92 0 C68.99 1.83, 65.06 3.66, 59.32 6.34 M72.92 0 C69.23 1.72, 65.55 3.44, 59.32 6.34 M59.32 6.34 C59.32 2.98, 59.32 -0.39, 59.32 -6.34 M59.32 6.34 C59.32 1.59, 59.32 -3.15, 59.32 -6.34 M59.32 -6.34 C62.94 -4.65, 66.56 -2.96, 72.92 0 M59.32 -6.34 C63.94 -4.19, 68.56 -2.03, 72.92 0 M72.92 0 C72.92 0, 72.92 0, 72.92 0 M72.92 0 C72.92 0, 72.92 0, 72.92 0" stroke="#1e1e1e" stroke-width="2" fill="none"></path></g></g><mask></mask><g stroke-linecap="round"><g transform="translate(576.9979717410843 86.22793605094574) rotate(0 -245.87054278422767 -20.434073607115295)"><path d="M0 0 C-10.57 -7.15, 9.85 -35.68, -63.43 -42.87 C-136.71 -50.06, -368.28 -50.68, -439.66 -43.15 C-511.05 -35.62, -483.06 -5.29, -491.74 2.28" stroke="#1e1e1e" stroke-width="2.5" fill="none" stroke-dasharray="8 10"></path></g><g transform="translate(576.9979717410843 86.22793605094574) rotate(0 -245.87054278422767 -20.434073607115295)"><path d="M-491.74 2.28 L-496.2 -12.04 L-483.64 -10.34 L-491.74 2.28" stroke="none" stroke-width="0" fill="#1e1e1e" fill-rule="evenodd"></path><path d="M-491.74 2.28 C-492.73 -0.89, -493.72 -4.06, -496.2 -12.04 M-496.2 -12.04 C-492.36 -11.52, -488.52 -11, -483.64 -10.34 M-483.64 -10.34 C-485.74 -7.07, -487.84 -3.79, -491.74 2.28 M-491.74 2.28 C-491.74 2.28, -491.74 2.28, -491.74 2.28" stroke="#1e1e1e" stroke-width="2.5" fill="none"></path></g></g><mask></mask><g transform="translate(296.6766088858634 10) rotate(0 28.349609375 11.5)"><text x="0" y="18.400390625" font-family="Helvetica, Segoe UI Emoji" font-size="20px" fill="#1e1e1e" text-anchor="start" style="white-space: pre;" direction="ltr" dominant-baseline="alphabetic">Iterate</text></g></svg>